Coordinates
version=1
nRows=11
nColumns=36
inDegrees=yes

Units are S.I. units (second, meters, Newtons, ...)
If the header above contains a line with 'inDegrees', this indicates whether rotational values are in degrees (yes) or radians (no).

endheader
time	pelvis_tilt	pelvis_list	pelvis_rotation	pelvis_tx	pelvis_ty	pelvis_tz	hip_flexion_r	hip_adduction_r	hip_rotation_r	knee_angle_r	knee_angle_r_beta	ankle_angle_r	subtalar_angle_r	mtp_angle_r	hip_flexion_l	hip_adduction_l	hip_rotation_l	knee_angle_l	knee_angle_l_beta	ankle_angle_l	subtalar_angle_l	mtp_angle_l	lumbar_extension	lumbar_bending	lumbar_rotation	arm_flex_r	arm_add_r	arm_rot_r	elbow_flex_r	pro_sup_r	arm_flex_l	arm_add_l	arm_rot_l	elbow_flex_l	pro_sup_l
      2.18333330	    -16.30049649	      1.69374898	      3.51473630	      0.55779943	      0.87100706	      0.12521999	     29.63928313	    -14.41748005	     -9.60369145	     25.96640986	      0.45319935	     18.09362421	     -6.29966729	     -7.49999987	     33.11714012	    -12.28121765	    -12.40687433	     31.14709765	      0.54361941	      9.40572708	    -11.58733370	     -7.49999987	     -5.44415721	     -3.76431648	      2.25734296	     67.57803234	     10.71460840	     63.78225277	    127.10698722	     95.71421090	     63.05277072	     12.04679547	     71.57907260	    122.30602045	     82.75073190
      2.20000000	    -16.88105469	      1.64956867	      3.49741297	      0.55889179	      0.85679922	      0.12503822	     31.99148901	    -14.82744757	     -9.71244365	     29.20475651	      0.50971916	     20.13527754	     -6.13544758	     -7.49999987	     35.23295846	    -13.06101852	    -12.68933220	     33.97646488	      0.59300118	     10.72865122	    -11.64596258	     -7.49999987	     -6.10520372	     -3.86256202	      2.38734909	     68.55555710	     11.16119672	     63.62406299	    127.41621189	     94.36500182	     64.23824772	     11.72639207	     72.17900533	    122.80316726	     82.01077755
      2.21666670	    -17.61652695	      1.61880884	      3.17378605	      0.55533403	      0.84883817	      0.12833723	     34.90321969	    -15.09935497	     -9.53133173	     32.85035169	      0.57334680	     22.16390262	     -5.83242153	     -7.49999987	     37.62085258	    -14.02119832	    -13.03914886	     37.02650847	      0.64623448	     12.23303638	    -11.35855267	     -7.49999987	     -6.51771087	     -4.06094498	      2.74981715	     69.50719084	     11.27464510	     64.03516891	    127.69341967	     93.25611357	     65.57114936	     11.99502119	     73.18163688	    123.63353006	     80.65326753
      2.23333330	    -18.05489905	      1.45088818	      3.02875278	      0.55636573	      0.84144182	      0.12781125	     37.11334046	    -15.34217708	     -9.54172989	     36.18837535	      0.63160630	     24.28757532	     -5.58477345	     -7.49999987	     39.70582160	    -15.03387366	    -13.18300180	     40.05838002	      0.69915062	     14.11971082	    -10.57147789	     -7.49999987	     -7.23251601	     -3.98549103	      2.72358557	     70.10467911	     11.44723594	     64.30191839	    127.96580492	     93.50857944	     66.73952032	     11.76193520	     73.62026692	    124.36318621	     80.98762221
      2.25000000	    -18.74295993	      1.31256957	      2.96581241	      0.55201165	      0.83502945	      0.12545026	     39.71960555	    -15.85134243	     -9.57596635	     39.52829526	      0.68989890	     25.75467970	     -5.42055273	     -7.49999987	     42.09019629	    -15.87832382	    -13.42938289	     43.02632406	      0.75095102	     16.03083496	     -9.33234509	     -7.49999987	     -7.68779715	     -3.81479308	      2.30240553	     70.79781444	     11.67818778	     65.46481604	    128.28765062	     92.12546586	     67.75178733	     10.83377622	     74.10501490	    123.31628168	     79.55313692
      2.26666670	    -19.22567006	      1.19949579	      3.10337426	      0.54907973	      0.82727936	      0.12894761	     42.23896760	    -16.27905436	     -9.32352152	     43.14577143	      0.75303577	     26.94573215	     -5.64738660	     -7.49999987	     44.22232641	    -16.69090723	    -13.54154586	     45.78304983	      0.79906496	     17.07084032	     -8.61131032	     -7.49999987	     -8.49211285	     -4.00628779	      1.76525127	     71.26552265	     11.69680150	     66.43010181	    128.79243905	     91.09307754	     68.89693566	     10.44698999	     74.88156930	    122.95130362	     78.67382369
      2.28333330	    -20.03232120	      1.03197250	      3.66896450	      0.54516927	      0.80928886	      0.13136597	     45.32677726	    -16.95544167	     -9.30775940	     47.45454623	      0.82823808	     28.28788769	     -6.31329213	     -7.49999987	     47.25337720	    -17.44926566	    -13.21831268	     48.98392709	      0.85493081	     18.10077776	     -7.92904558	     -7.49999987	     -8.93781910	     -4.22763808	      1.08915691	     72.52019858	     11.70910018	     66.25983293	    129.02945661	     95.07571019	     70.49251529	      9.93601567	     74.83347283	    123.53396875	     82.22947497
      2.30000000	    -21.15347417	      0.85760366	      4.27607899	      0.53331122	      0.79733120	      0.13475385	     49.03181103	    -17.55275186	     -9.00101942	     51.58635184	      0.90035169	     29.58775448	     -6.47601513	     -7.49999987	     51.30224904	    -18.14373732	    -12.48889151	     52.51981821	      0.91664375	     19.07588206	     -7.21030244	     -7.49999987	     -9.47575162	     -4.56177692	      0.57331175	     74.81652150	     11.74880693	     65.96659549	    129.11904646	     94.96814627	     73.27059207	      9.74522892	     74.53700028	    122.57380850	     82.17867237
      2.31666670	    -22.24733763	      0.70909379	      5.06561439	      0.52841911	      0.79096326	      0.13186113	     52.07976393	    -18.41152493	     -8.89398000	     54.59209359	      0.95281178	     30.13697608	     -6.65565984	     -7.49999987	     55.02178338	    -18.25606340	    -11.63770319	     55.33661166	      0.96580607	     19.74407997	     -6.62952021	     -7.49999987	    -10.37917592	     -4.58944104	     -0.38855034	     76.85590708	     11.63217124	     65.94153102	    128.84449898	     94.89134772	     75.89216053	      9.37142806	     73.91565110	    121.54533077	     82.07371685
      2.33333330	    -23.55711111	      0.40332112	      5.53660707	      0.52540318	      0.77727263	      0.13465190	     55.11639196	    -18.89108668	     -8.84433221	     57.22607691	      0.99878346	     31.12088168	     -5.93404983	     -7.49999987	     58.73158712	    -18.69956034	    -10.87070179	     58.01991912	      1.01263862	     20.65922665	     -5.52502962	     -7.49999987	    -10.67314130	     -4.50835206	     -0.84973688	     78.27184907	     11.20154804	     65.51527505	    128.91216385	     92.94835344	     78.07842483	     10.07947144	     73.74872332	    121.36524527	     80.81386675
      2.35000000	    -24.55716647	      0.21153239	      5.90383375	      0.52906984	      0.76563367	      0.13137448	     57.39948679	    -19.58020108	     -8.87421471	     59.56719434	      1.03964367	     31.98564916	     -5.78638388	     -7.49999987	     61.48996955	    -18.98802865	    -10.10921426	     60.68783622	      1.05920256	     21.89642788	     -4.12221362	     -7.49999987	    -10.94544463	     -4.21062019	     -1.20986219	     78.78564717	     10.78311726	     65.96626823	    128.70396485	     92.83802822	     78.50713304	     10.30182785	     73.99845323	    121.04839797	     80.67026447
